<svg width="166" height="96" viewBox="0 0 166 96" fill="none"
  xmlns="http://www.w3.org/2000/svg">
  <g clip-path="url(#clip0_7_17)">
    <rect width="166" height="96" fill="white"/>
    <path d="M16.2137 64.8C18.9257 64.8 20.9777 65.508 22.3697 66.924C23.7857 68.316 24.4937 70.368 24.4937 73.08V81.72C24.4937 84.432 23.7857 86.496 22.3697 87.912C20.9777 89.304 18.9257 90 16.2137 90H2.17367V64.8H16.2137ZM18.0137 73.08C18.0137 70.92 16.9337 69.84 14.7737 69.84H8.65367V84.96H14.7737C16.9337 84.96 18.0137 83.88 18.0137 81.72V73.08ZM35.6438 71.64V90H29.3438V76.5H26.6438V71.64H35.6438ZM29.3438 64.44H35.6438V69.48H29.3438V64.44ZM52.0351 70.92H58.6951L51.4951 90H44.2951L37.0951 70.92H43.7551L47.8951 83.88L52.0351 70.92ZM67.1663 75.06C66.2063 75.06 65.7263 75.54 65.7263 76.5V78.48H71.8463V76.5C71.8463 75.54 71.3663 75.06 70.4063 75.06H67.1663ZM77.4263 89.64C72.7943 90.12 68.5943 90.36 64.8263 90.36C63.1943 90.36 61.8863 89.868 60.9023 88.884C59.9183 87.9 59.4263 86.592 59.4263 84.96V76.32C59.4263 74.52 59.9303 73.116 60.9383 72.108C61.9703 71.076 63.3863 70.56 65.1863 70.56H72.3863C74.1863 70.56 75.5903 71.076 76.5983 72.108C77.6303 73.116 78.1463 74.52 78.1463 76.32V82.98H65.7263V84.42C65.7263 84.78 65.8463 85.08 66.0863 85.32C66.3263 85.56 66.6263 85.68 66.9863 85.68C69.3623 85.68 72.8423 85.5 77.4263 85.14V89.64ZM103.692 90H96.8523L88.2123 74.88V90H81.7323V64.8H88.5723L97.2123 79.92V64.8H103.692V90ZM115.049 75.06C114.089 75.06 113.609 75.54 113.609 76.5V78.48H119.729V76.5C119.729 75.54 119.249 75.06 118.289 75.06H115.049ZM125.309 89.64C120.677 90.12 116.477 90.36 112.709 90.36C111.077 90.36 109.769 89.868 108.785 88.884C107.801 87.9 107.309 86.592 107.309 84.96V76.32C107.309 74.52 107.813 73.116 108.821 72.108C109.853 71.076 111.269 70.56 113.069 70.56H120.269C122.069 70.56 123.473 71.076 124.481 72.108C125.513 73.116 126.029 74.52 126.029 76.32V82.98H113.609V84.42C113.609 84.78 113.729 85.08 113.969 85.32C114.209 85.56 114.509 85.68 114.869 85.68C117.245 85.68 120.725 85.5 125.309 85.14V89.64ZM140.235 76.14C138.723 76.14 137.163 76.5 135.555 77.22V90H129.255V70.92H134.835L135.195 73.26C137.259 71.46 139.419 70.56 141.675 70.56H143.295V76.14H140.235ZM158.611 90L158.251 88.2C157.123 88.944 155.959 89.496 154.759 89.856C153.583 90.192 152.587 90.36 151.771 90.36H150.151C148.519 90.36 147.211 89.868 146.227 88.884C145.243 87.9 144.751 86.592 144.751 84.96V76.68C144.751 74.88 145.255 73.476 146.263 72.468C147.295 71.436 148.711 70.92 150.511 70.92H157.891V64.8H164.191V90H158.611ZM153.571 85.14C154.843 85.14 156.283 84.9 157.891 84.42V75.78H152.491C151.531 75.78 151.051 76.26 151.051 77.22V83.88C151.051 84.24 151.171 84.54 151.411 84.78C151.651 85.02 151.951 85.14 152.311 85.14H153.571Z" fill="black"/>
    <rect width="64" height="64" transform="translate(43)" fill="white"/>
    <path d="M84.8044 42.2005C84.6463 42.1217 84.4888 42.0424 84.2513 41.9636C84.2513 41.9636 82.9875 43.3062 82.9087 43.3062C84.7251 43.5431 86.2259 45.0438 86.2259 46.9396C86.2259 48.9929 84.567 50.5729 82.5138 50.5729C80.4606 50.5729 78.8018 48.9141 78.8018 46.9396C78.8018 45.0439 80.3025 43.4643 82.1189 43.3062L80.7763 41.9636C79.1969 42.5167 77.8542 43.78 77.3805 45.5176C77.2224 45.9914 77.2224 46.4652 77.2224 46.9389C77.2224 49.7822 79.5919 52.2306 82.514 52.2306C84.4885 52.2306 86.3842 50.888 87.2531 49.1504C88.5957 46.6233 87.3324 43.4644 84.8049 42.2006L84.8044 42.2005Z" fill="black"/>
    <path d="M72.5626 44.4909H68.3766C64.4277 44.4909 60.5575 46.1498 57.951 49.1506C55.7396 51.6782 54.239 55.1529 55.0289 58.5493C55.1082 58.7074 55.6608 61.0769 55.8977 61.0769H60.7155C60.1624 60.1294 59.6886 59.0236 59.4517 57.918C58.8198 54.5222 61.3473 51.4414 64.1908 50.0201C65.5333 49.3094 67.1129 48.9932 68.6135 48.9932H72.5625L72.5626 44.4909Z" fill="black"/>
    <path d="M96.9674 17.5588C96.8092 17.4007 96.7305 17.2431 96.5723 17.085C95.9404 16.5319 95.0716 16.4531 94.2822 16.3743C91.3601 16.0586 85.0416 15.2686 84.8048 15.1899C83.936 15.1111 82.9884 15.0317 82.0402 15.0317C81.1714 15.0317 80.2238 15.1105 79.355 15.1899C76.1961 15.5849 72.9578 15.9799 69.7982 16.3743C69.0082 16.4531 68.2187 16.4531 67.5868 16.9275C67.3499 17.0856 67.1917 17.2431 67.0336 17.4806L96.967 17.4795L96.9674 17.5588Z" fill="black"/>
    <path d="M99.0998 18.9014H66.0072C64.4278 18.9014 63.164 20.1652 63.164 21.7446V29.327C63.164 30.5908 63.954 31.6965 65.1385 32.0915C65.1385 32.0915 74.1422 34.9348 74.4578 34.9348C75.6423 34.9348 76.7479 34.2241 77.143 33.1184L81.2501 22.6928C81.487 22.1397 81.9608 21.824 82.5139 21.824C83.067 21.824 83.5408 22.1397 83.7777 22.6928L88.0429 33.0385C88.4379 34.1441 89.5436 34.9341 90.728 34.9341C91.0437 34.9341 100.047 32.0908 100.047 32.0908C101.232 31.6958 102.022 30.5901 102.022 29.3263V21.7439C102.022 20.165 100.679 18.9012 99.0998 18.9012L99.0998 18.9014ZM79.1179 24.0348L76.2746 31.5377C75.8008 32.8015 74.379 33.5122 73.0363 33.1172L66.8759 31.1427C65.7702 30.827 65.0595 29.8001 65.0595 28.6944V23.166C65.0595 21.7446 66.244 20.5596 67.6658 20.5596H76.7482C78.5652 20.5596 79.7496 22.3766 79.1178 24.0349L79.1179 24.0348ZM100.127 28.6944C100.127 29.8001 99.4158 30.827 98.3101 31.2221L92.071 33.1966C90.7284 33.5916 89.3064 32.9597 88.8327 31.6171L85.9106 24.0348C85.2787 22.2972 86.5425 20.4808 88.3588 20.4808H97.5201C98.9414 20.4808 100.126 21.6653 100.126 23.0871L100.127 28.6944Z" fill="black"/>
    <path d="M91.9916 36.0401C91.5966 36.1982 91.1228 36.277 90.7278 36.277C88.9903 36.277 87.4107 35.1713 86.7788 33.5918L82.5142 23.0875L78.4071 33.5131C77.7752 35.0926 76.1957 36.1983 74.4581 36.1983C74.0631 36.1983 73.5893 36.1195 73.1943 35.9614L67.3497 34.0657C67.4285 34.6976 67.6653 35.3295 68.1397 35.7246C68.8504 36.4353 69.9561 36.5934 70.9043 36.6722C73.1157 36.9091 78.5653 37.6198 78.8811 37.936L81.9613 41.0949V30.4323C81.9613 30.0373 82.277 29.8004 82.5932 29.8004C82.9882 29.8004 83.2251 30.1161 83.2251 30.4323V41.1736C84.3308 40.0679 86.2265 38.0934 86.2265 38.0934C86.4634 37.8565 86.8584 37.8565 87.1741 37.8565C89.1486 37.6196 94.4402 36.8296 95.1509 36.7508C95.704 36.672 96.3354 36.5927 96.8098 36.277C97.5204 35.8032 97.9942 35.0132 98.0736 34.1444L91.9916 36.0401Z" fill="black"/>
    <path d="M50.9221 32.644C49.3427 32.644 48 33.9865 48 35.5661C47.9994 37.1461 49.342 38.4099 50.9221 38.4099C52.5016 38.4099 53.8442 37.0673 53.8442 35.4878C53.8442 33.9078 52.5016 32.644 50.9221 32.644Z" fill="black"/>
    <path d="M60.3207 41.0157C60.3207 42.106 59.437 42.9902 58.3462 42.9902C57.2559 42.9902 56.3717 42.106 56.3717 41.0157C56.3717 39.9249 57.2559 39.0412 58.3462 39.0412C59.437 39.0412 60.3207 39.9249 60.3207 41.0157Z" fill="black"/>
    <path d="M56.5297 24.0351C54.634 24.0351 53.0544 25.6146 53.0544 27.5104C53.0544 29.4062 54.6339 30.9856 56.5297 30.9856C58.4255 30.9856 60.0049 29.4062 60.0049 27.5104C60.0049 25.6146 58.5042 24.0351 56.5297 24.0351Z" fill="black"/>
    <path d="M90.8859 49.8616V43.7011H88.6745C89.1482 44.6487 89.4645 45.7545 89.4645 46.9395C89.4645 47.9664 89.2276 48.9928 88.8326 49.8616H90.8859Z" fill="black"/>
    <path d="M74.6161 43.7801V49.9405H76.4325C76.0374 49.0717 75.7218 48.0448 75.7218 46.9391C75.7218 45.7546 76.0374 44.7277 76.5118 43.7802L74.6161 43.7801Z" fill="black"/>
    <path d="M84.6465 46.9393C84.6465 48.0731 83.7276 48.9926 82.5932 48.9926C81.4588 48.9926 80.5398 48.0731 80.5398 46.9393C80.5398 45.8049 81.4588 44.8855 82.5932 44.8855C83.7275 44.8855 84.6465 45.805 84.6465 46.9393Z" fill="black"/>
    <path d="M65.5334 17.6378C66.0865 16.2164 67.5079 15.2682 69.2454 15.1895L79.1968 13.9257C81.0924 13.6888 83.0669 13.6888 84.9622 13.9257L94.7558 15.1895C96.4146 15.1895 97.9147 16.2164 98.4678 17.5591H99.0997C100.205 17.5591 101.153 17.9541 101.864 18.6647C100.522 9.18674 92.3869 2 82.5143 2C72.7206 2 64.5859 9.26614 63.1642 18.6647C63.8749 18.1116 64.6644 17.7166 65.5332 17.6378L65.5334 17.6378Z" fill="black"/>
    <path d="M100.363 33.3547L99.3366 33.6704V33.8285C99.3366 36.04 97.599 37.8564 95.3876 37.9356L87.0159 39.1201L85.4364 40.7789C86.1471 41.0946 86.779 41.569 87.3321 42.1215H92.3868V51.5203H87.569C86.3052 52.9416 84.4888 53.8104 82.5143 53.8104C80.5398 53.8104 78.7234 52.9416 77.4596 51.5203H72.563V50.4934H69.8773C73.6681 54.758 78.4071 57.6807 82.593 57.6807C91.9123 57.6807 102.18 45.2806 102.18 34.4606V32.1705C101.706 32.723 101.074 33.1181 100.364 33.3549L100.363 33.3547Z" fill="black"/>
    <path d="M72.5626 42.2005H77.696C78.2491 41.6474 78.9598 41.1736 79.6705 40.7791L78.091 39.1203L69.9561 37.9358C67.7447 37.9358 66.0071 36.1194 66.0071 33.8287V33.7499L64.7433 33.3549C64.0326 33.118 63.4795 32.723 63.0058 32.2492V34.5394C63.0058 37.4615 63.7958 40.4629 65.1383 43.3061C66.244 43.0692 67.3498 42.9111 68.4555 42.9111H72.6414L72.5626 42.2005Z" fill="black"/>
  </g>
  <defs>
    <clipPath id="clip0_7_17">
      <rect width="166" height="96" fill="white"/>
    </clipPath>
  </defs>
</svg>
