<svg width="249" height="64" viewBox="0 0 249 64" fill="none"
  xmlns="http://www.w3.org/2000/svg">
  <rect width="249" height="64" fill="white"/>
  <path d="M90.2 17.8C92.912 17.8 94.964 18.508 96.356 19.924C97.772 21.316 98.48 23.368 98.48 26.08V34.72C98.48 37.432 97.772 39.496 96.356 40.912C94.964 42.304 92.912 43 90.2 43H76.16V17.8H90.2ZM92 26.08C92 23.92 90.92 22.84 88.76 22.84H82.64V37.96H88.76C90.92 37.96 92 36.88 92 34.72V26.08ZM109.63 24.64V43H103.33V29.5H100.63V24.64H109.63ZM103.33 17.44H109.63V22.48H103.33V17.44ZM126.021 23.92H132.681L125.481 43H118.281L111.081 23.92H117.741L121.881 36.88L126.021 23.92ZM141.153 28.06C140.193 28.06 139.713 28.54 139.713 29.5V31.48H145.833V29.5C145.833 28.54 145.353 28.06 144.393 28.06H141.153ZM151.413 42.64C146.781 43.12 142.581 43.36 138.813 43.36C137.181 43.36 135.873 42.868 134.889 41.884C133.905 40.9 133.413 39.592 133.413 37.96V29.32C133.413 27.52 133.917 26.116 134.925 25.108C135.957 24.076 137.373 23.56 139.173 23.56H146.373C148.173 23.56 149.577 24.076 150.585 25.108C151.617 26.116 152.133 27.52 152.133 29.32V35.98H139.713V37.42C139.713 37.78 139.833 38.08 140.073 38.32C140.313 38.56 140.613 38.68 140.973 38.68C143.349 38.68 146.829 38.5 151.413 38.14V42.64ZM177.679 43H170.839L162.199 27.88V43H155.719V17.8H162.559L171.199 32.92V17.8H177.679V43ZM189.035 28.06C188.075 28.06 187.595 28.54 187.595 29.5V31.48H193.715V29.5C193.715 28.54 193.235 28.06 192.275 28.06H189.035ZM199.295 42.64C194.663 43.12 190.463 43.36 186.695 43.36C185.063 43.36 183.755 42.868 182.771 41.884C181.787 40.9 181.295 39.592 181.295 37.96V29.32C181.295 27.52 181.799 26.116 182.807 25.108C183.839 24.076 185.255 23.56 187.055 23.56H194.255C196.055 23.56 197.459 24.076 198.467 25.108C199.499 26.116 200.015 27.52 200.015 29.32V35.98H187.595V37.42C187.595 37.78 187.715 38.08 187.955 38.32C188.195 38.56 188.495 38.68 188.855 38.68C191.231 38.68 194.711 38.5 199.295 38.14V42.64ZM214.221 29.14C212.709 29.14 211.149 29.5 209.541 30.22V43H203.241V23.92H208.821L209.181 26.26C211.245 24.46 213.405 23.56 215.661 23.56H217.281V29.14H214.221ZM232.597 43L232.237 41.2C231.109 41.944 229.945 42.496 228.745 42.856C227.569 43.192 226.573 43.36 225.757 43.36H224.137C222.505 43.36 221.197 42.868 220.213 41.884C219.229 40.9 218.737 39.592 218.737 37.96V29.68C218.737 27.88 219.241 26.476 220.249 25.468C221.281 24.436 222.697 23.92 224.497 23.92H231.877V17.8H238.177V43H232.597ZM227.557 38.14C228.829 38.14 230.269 37.9 231.877 37.42V28.78H226.477C225.517 28.78 225.037 29.26 225.037 30.22V36.88C225.037 37.24 225.157 37.54 225.397 37.78C225.637 38.02 225.937 38.14 226.297 38.14H227.557Z" fill="black"/>
  <rect width="64" height="64" transform="translate(2)" fill="white"/>
  <path d="M43.8044 42.2005C43.6463 42.1217 43.4888 42.0424 43.2513 41.9636C43.2513 41.9636 41.9875 43.3062 41.9087 43.3062C43.7251 43.5431 45.2259 45.0438 45.2259 46.9396C45.2259 48.9929 43.567 50.5729 41.5138 50.5729C39.4606 50.5729 37.8018 48.9141 37.8018 46.9396C37.8018 45.0439 39.3025 43.4643 41.1189 43.3062L39.7763 41.9636C38.1969 42.5167 36.8542 43.78 36.3805 45.5176C36.2224 45.9914 36.2224 46.4652 36.2224 46.9389C36.2224 49.7822 38.5919 52.2306 41.514 52.2306C43.4885 52.2306 45.3842 50.888 46.2531 49.1504C47.5957 46.6233 46.3324 43.4644 43.8049 42.2006L43.8044 42.2005Z" fill="black"/>
  <path d="M31.5626 44.4909H27.3766C23.4277 44.4909 19.5575 46.1498 16.951 49.1506C14.7396 51.6782 13.239 55.1529 14.0289 58.5493C14.1082 58.7074 14.6608 61.0769 14.8977 61.0769H19.7155C19.1624 60.1294 18.6886 59.0236 18.4517 57.918C17.8198 54.5222 20.3473 51.4414 23.1908 50.0201C24.5333 49.3094 26.1129 48.9932 27.6135 48.9932H31.5625L31.5626 44.4909Z" fill="black"/>
  <path d="M55.9674 17.5588C55.8092 17.4007 55.7305 17.2431 55.5723 17.085C54.9404 16.5319 54.0716 16.4531 53.2822 16.3743C50.3601 16.0586 44.0416 15.2686 43.8048 15.1899C42.936 15.1111 41.9884 15.0317 41.0402 15.0317C40.1714 15.0317 39.2238 15.1105 38.355 15.1899C35.1961 15.5849 31.9578 15.9799 28.7982 16.3743C28.0082 16.4531 27.2187 16.4531 26.5868 16.9275C26.3499 17.0856 26.1917 17.2431 26.0336 17.4806L55.967 17.4795L55.9674 17.5588Z" fill="black"/>
  <path d="M58.0998 18.9014H25.0072C23.4278 18.9014 22.164 20.1652 22.164 21.7446V29.327C22.164 30.5908 22.954 31.6965 24.1385 32.0915C24.1385 32.0915 33.1422 34.9348 33.4578 34.9348C34.6423 34.9348 35.7479 34.2241 36.143 33.1184L40.2501 22.6928C40.487 22.1397 40.9608 21.824 41.5139 21.824C42.067 21.824 42.5408 22.1397 42.7777 22.6928L47.0429 33.0385C47.4379 34.1441 48.5436 34.9341 49.728 34.9341C50.0437 34.9341 59.0474 32.0908 59.0474 32.0908C60.2318 31.6958 61.0219 30.5901 61.0219 29.3263V21.7439C61.0224 20.165 59.6793 18.9012 58.0998 18.9012L58.0998 18.9014ZM38.1179 24.0348L35.2746 31.5377C34.8008 32.8015 33.379 33.5122 32.0363 33.1172L25.8759 31.1427C24.7702 30.827 24.0595 29.8001 24.0595 28.6944V23.166C24.0595 21.7446 25.244 20.5596 26.6658 20.5596H35.7482C37.5652 20.5596 38.7496 22.3766 38.1178 24.0349L38.1179 24.0348ZM59.1265 28.6944C59.1265 29.8001 58.4158 30.827 57.3101 31.2221L51.071 33.1966C49.7284 33.5916 48.3064 32.9597 47.8327 31.6171L44.9106 24.0348C44.2787 22.2972 45.5425 20.4808 47.3588 20.4808H56.5201C57.9414 20.4808 59.1264 21.6653 59.1264 23.0871L59.1265 28.6944Z" fill="black"/>
  <path d="M50.9916 36.0401C50.5966 36.1982 50.1228 36.277 49.7278 36.277C47.9903 36.277 46.4107 35.1713 45.7788 33.5918L41.5142 23.0875L37.4071 33.5131C36.7752 35.0926 35.1957 36.1983 33.4581 36.1983C33.0631 36.1983 32.5893 36.1195 32.1943 35.9614L26.3497 34.0657C26.4285 34.6976 26.6653 35.3295 27.1397 35.7246C27.8504 36.4353 28.9561 36.5934 29.9043 36.6722C32.1157 36.9091 37.5653 37.6198 37.8811 37.936L40.9613 41.0949V30.4323C40.9613 30.0373 41.277 29.8004 41.5932 29.8004C41.9882 29.8004 42.2251 30.1161 42.2251 30.4323V41.1736C43.3308 40.0679 45.2265 38.0934 45.2265 38.0934C45.4634 37.8565 45.8584 37.8565 46.1741 37.8565C48.1486 37.6196 53.4402 36.8296 54.1509 36.7508C54.704 36.672 55.3354 36.5927 55.8098 36.277C56.5204 35.8032 56.9942 35.0132 57.0736 34.1444L50.9916 36.0401Z" fill="black"/>
  <path d="M9.92211 32.644C8.34266 32.644 7 33.9865 7 35.5661C6.99945 37.1461 8.34204 38.4099 9.92211 38.4099C11.5016 38.4099 12.8442 37.0673 12.8442 35.4878C12.8442 33.9078 11.5016 32.644 9.92211 32.644Z" fill="black"/>
  <path d="M19.3207 41.0157C19.3207 42.106 18.437 42.9902 17.3462 42.9902C16.2559 42.9902 15.3717 42.106 15.3717 41.0157C15.3717 39.9249 16.2559 39.0412 17.3462 39.0412C18.437 39.0412 19.3207 39.9249 19.3207 41.0157Z" fill="black"/>
  <path d="M15.5297 24.0351C13.634 24.0351 12.0544 25.6146 12.0544 27.5104C12.0544 29.4062 13.6339 30.9856 15.5297 30.9856C17.4255 30.9856 19.0049 29.4062 19.0049 27.5104C19.0049 25.6146 17.5042 24.0351 15.5297 24.0351Z" fill="black"/>
  <path d="M49.8859 49.8616V43.7011H47.6745C48.1482 44.6487 48.4645 45.7545 48.4645 46.9395C48.4645 47.9664 48.2276 48.9928 47.8326 49.8616H49.8859Z" fill="black"/>
  <path d="M33.6161 43.7801V49.9405H35.4325C35.0374 49.0717 34.7218 48.0448 34.7218 46.9391C34.7218 45.7546 35.0374 44.7277 35.5118 43.7802L33.6161 43.7801Z" fill="black"/>
  <path d="M43.6465 46.9393C43.6465 48.0731 42.7276 48.9926 41.5932 48.9926C40.4588 48.9926 39.5398 48.0731 39.5398 46.9393C39.5398 45.8049 40.4588 44.8855 41.5932 44.8855C42.7275 44.8855 43.6465 45.805 43.6465 46.9393Z" fill="black"/>
  <path d="M24.5334 17.6378C25.0865 16.2164 26.5079 15.2682 28.2454 15.1895L38.1968 13.9257C40.0924 13.6888 42.0669 13.6888 43.9622 13.9257L53.7558 15.1895C55.4146 15.1895 56.9147 16.2164 57.4678 17.5591H58.0997C59.2054 17.5591 60.1531 17.9541 60.8643 18.6647C59.5217 9.18674 51.3869 2 41.5143 2C31.7206 2 23.5859 9.26614 22.1642 18.6647C22.8749 18.1116 23.6644 17.7166 24.5332 17.6378L24.5334 17.6378Z" fill="black"/>
  <path d="M59.3635 33.3547L58.3366 33.6704V33.8285C58.3366 36.04 56.599 37.8564 54.3876 37.9356L46.0159 39.1201L44.4364 40.7789C45.1471 41.0946 45.779 41.569 46.3321 42.1215H51.3868V51.5203H46.569C45.3052 52.9416 43.4888 53.8104 41.5143 53.8104C39.5398 53.8104 37.7234 52.9416 36.4596 51.5203H31.563V50.4934H28.8773C32.6681 54.758 37.4071 57.6807 41.593 57.6807C50.9123 57.6807 61.18 45.2806 61.18 34.4606V32.1705C60.7062 32.723 60.0743 33.1181 59.3636 33.3549L59.3635 33.3547Z" fill="black"/>
  <path d="M31.5626 42.2005H36.696C37.2491 41.6474 37.9598 41.1736 38.6705 40.7791L37.091 39.1203L28.9561 37.9358C26.7447 37.9358 25.0071 36.1194 25.0071 33.8287V33.7499L23.7433 33.3549C23.0326 33.118 22.4795 32.723 22.0058 32.2492V34.5394C22.0058 37.4615 22.7958 40.4629 24.1383 43.3061C25.244 43.0692 26.3498 42.9111 27.4555 42.9111H31.6414L31.5626 42.2005Z" fill="black"/>
</svg>
